<mxfile host="app.diagrams.net" modified="2023-03-21T14:07:48.918Z" agent="5.0 (Windows NT 10.0; Win64; x64) AppleWebKit/537.36 (KHTML, like Gecko) Chrome/110.0.0.0 Safari/537.36" etag="1-14Ms8JRDlpuSOSYZKH" version="21.0.8" type="github">
  <diagram id="C5RBs43oDa-KdzZeNtuy" name="Page-1">
    <mxGraphModel dx="2651" dy="2227" grid="1" gridSize="10" guides="1" tooltips="1" connect="1" arrows="1" fold="1" page="1" pageScale="1" pageWidth="827" pageHeight="1169" math="0" shadow="0">
      <root>
        <mxCell id="WIyWlLk6GJQsqaUBKTNV-0" />
        <mxCell id="WIyWlLk6GJQsqaUBKTNV-1" parent="WIyWlLk6GJQsqaUBKTNV-0" />
        <mxCell id="tgQ6IL0ho2XKHn_8PLRf-0" value="&lt;p style=&quot;margin:0px;margin-top:4px;text-align:center;&quot;&gt;&lt;b&gt;Application&lt;/b&gt;&lt;/p&gt;&lt;hr size=&quot;1&quot;/&gt;&lt;p style=&quot;margin:0 0 0 4px;line-height:1.6;&quot;&gt;+ Application(): &lt;/p&gt;&lt;hr size=&quot;1&quot;/&gt;&lt;p style=&quot;margin:0 0 0 4px;line-height:1.6;&quot;&gt;+ helloWorld(): String&lt;br/&gt;+ main(String[]): void&lt;br/&gt;+ corsConfigurer(): WebMvcConfigurer&lt;/p&gt;" style="verticalAlign=top;align=left;overflow=fill;fontSize=14;fontFamily=Helvetica;html=1;rounded=0;shadow=0;comic=0;labelBackgroundColor=none;strokeWidth=1;" vertex="1" parent="WIyWlLk6GJQsqaUBKTNV-1">
          <mxGeometry x="-110" y="1240" width="271" height="144" as="geometry" />
        </mxCell>
        <mxCell id="tgQ6IL0ho2XKHn_8PLRf-1" value="&lt;p style=&quot;margin:0px;margin-top:4px;text-align:center;&quot;&gt;&lt;i&gt;&amp;lt;&amp;lt;interface&amp;gt;&amp;gt;&lt;/i&gt;&lt;br/&gt;&lt;b&gt;DTOMapper&lt;/b&gt;&lt;/p&gt;&lt;hr size=&quot;1&quot;/&gt;&lt;p style=&quot;margin:0 0 0 4px;line-height:1.6;&quot;&gt;+ INSTANCE: DTOMapper&lt;/p&gt;&lt;hr size=&quot;1&quot;/&gt;&lt;p style=&quot;margin:0 0 0 4px;line-height:1.6;&quot;&gt;+ convertUserPutDTOtoEntity(UserPutDTO): User&lt;br/&gt;+ convertEntityToUserGetDTO(User): UserGetDTO&lt;br/&gt;+ convertUserPostDTOtoEntity(UserPostDTO): User&lt;/p&gt;" style="verticalAlign=top;align=left;overflow=fill;fontSize=14;fontFamily=Helvetica;html=1;rounded=0;shadow=0;comic=0;labelBackgroundColor=none;strokeWidth=1;" vertex="1" parent="WIyWlLk6GJQsqaUBKTNV-1">
          <mxGeometry x="796" y="1026" width="348" height="164" as="geometry" />
        </mxCell>
        <mxCell id="tgQ6IL0ho2XKHn_8PLRf-2" value="" style="edgeStyle=orthogonalEdgeStyle;rounded=0;orthogonalLoop=1;jettySize=auto;html=1;" edge="1" parent="WIyWlLk6GJQsqaUBKTNV-1" source="tgQ6IL0ho2XKHn_8PLRf-3" target="tgQ6IL0ho2XKHn_8PLRf-11">
          <mxGeometry relative="1" as="geometry" />
        </mxCell>
        <mxCell id="tgQ6IL0ho2XKHn_8PLRf-3" value="&lt;p style=&quot;margin:0px;margin-top:4px;text-align:center;&quot;&gt;&lt;b&gt;GlobalExceptionAdvice&lt;/b&gt;&lt;/p&gt;&lt;hr size=&quot;1&quot;/&gt;&lt;p style=&quot;margin:0 0 0 4px;line-height:1.6;&quot;&gt;+ GlobalExceptionAdvice(): &lt;/p&gt;&lt;hr size=&quot;1&quot;/&gt;&lt;p style=&quot;margin:0 0 0 4px;line-height:1.6;&quot;&gt;- log: Logger&lt;/p&gt;&lt;hr size=&quot;1&quot;/&gt;&lt;p style=&quot;margin:0 0 0 4px;line-height:1.6;&quot;&gt;+ handleTransactionSystemException(Exception, HttpServletRequest): ResponseStatusException&lt;br/&gt;# handleConflict(RuntimeException, WebRequest): ResponseEntity&amp;lt;Object&amp;gt;&lt;br/&gt;+ handleException(Exception): ResponseStatusException&lt;/p&gt;" style="verticalAlign=top;align=left;overflow=fill;fontSize=14;fontFamily=Helvetica;html=1;rounded=0;shadow=0;comic=0;labelBackgroundColor=none;strokeWidth=1;" vertex="1" parent="WIyWlLk6GJQsqaUBKTNV-1">
          <mxGeometry x="-110" y="1026" width="592" height="184" as="geometry" />
        </mxCell>
        <mxCell id="tgQ6IL0ho2XKHn_8PLRf-4" value="&lt;p style=&quot;margin:0px;margin-top:4px;text-align:center;&quot;&gt;&lt;b&gt;User&lt;/b&gt;&lt;/p&gt;&lt;hr size=&quot;1&quot;/&gt;&lt;p style=&quot;margin:0 0 0 4px;line-height:1.6;&quot;&gt;+ User(): &lt;/p&gt;&lt;hr size=&quot;1&quot;/&gt;&lt;p style=&quot;margin:0 0 0 4px;line-height:1.6;&quot;&gt;- id: Long&lt;br/&gt;- username: String&lt;br/&gt;- status: UserStatus&lt;br/&gt;- birthday: Date&lt;br/&gt;- name: String&lt;br/&gt;- password: String&lt;br/&gt;- creationDate: Date&lt;br/&gt;- token: String&lt;br/&gt;- serialVersionUID: long&lt;/p&gt;&lt;hr size=&quot;1&quot;/&gt;&lt;p style=&quot;margin:0 0 0 4px;line-height:1.6;&quot;&gt;+ setId(Long): void&lt;br/&gt;+ getPassword(): String&lt;br/&gt;+ setPassword(String): void&lt;br/&gt;+ setCreationDate(Date): void&lt;br/&gt;+ getId(): Long&lt;br/&gt;+ setBirthday(Date): void&lt;br/&gt;+ setStatus(UserStatus): void&lt;br/&gt;+ getBirthday(): Date&lt;br/&gt;+ setUsername(String): void&lt;br/&gt;+ setToken(String): void&lt;br/&gt;+ getToken(): String&lt;br/&gt;+ getUsername(): String&lt;br/&gt;+ getCreationDate(): Date&lt;br/&gt;+ getStatus(): UserStatus&lt;br/&gt;+ setName(String): void&lt;br/&gt;+ getName(): String&lt;/p&gt;" style="verticalAlign=top;align=left;overflow=fill;fontSize=14;fontFamily=Helvetica;html=1;rounded=0;shadow=0;comic=0;labelBackgroundColor=none;strokeWidth=1;" vertex="1" parent="WIyWlLk6GJQsqaUBKTNV-1">
          <mxGeometry x="-110" y="-14" width="216" height="607" as="geometry" />
        </mxCell>
        <mxCell id="tgQ6IL0ho2XKHn_8PLRf-5" value="&lt;p style=&quot;margin:0px;margin-top:4px;text-align:center;&quot;&gt;&lt;b&gt;UserController&lt;/b&gt;&lt;/p&gt;&lt;hr size=&quot;1&quot;/&gt;&lt;p style=&quot;margin:0 0 0 4px;line-height:1.6;&quot;&gt;~ UserController(UserService): &lt;/p&gt;&lt;hr size=&quot;1&quot;/&gt;&lt;p style=&quot;margin:0 0 0 4px;line-height:1.6;&quot;&gt;- userService: UserService&lt;/p&gt;&lt;hr size=&quot;1&quot;/&gt;&lt;p style=&quot;margin:0 0 0 4px;line-height:1.6;&quot;&gt;+ getAllUsers(): List&amp;lt;UserGetDTO&amp;gt;&lt;br/&gt;+ logout(Long): void&lt;br/&gt;+ loginUser(UserPostDTO, HttpServletResponse): UserGetDTO&lt;br/&gt;+ updateUserFromUserID(Long, UserPutDTO, String): void&lt;br/&gt;+ createUser(UserPostDTO, HttpServletResponse): UserGetDTO&lt;br/&gt;+ getUserFromUserID(Long, String): UserGetDTO&lt;/p&gt;" style="verticalAlign=top;align=left;overflow=fill;fontSize=14;fontFamily=Helvetica;html=1;rounded=0;shadow=0;comic=0;labelBackgroundColor=none;strokeWidth=1;" vertex="1" parent="WIyWlLk6GJQsqaUBKTNV-1">
          <mxGeometry x="267" y="638" width="425" height="252" as="geometry" />
        </mxCell>
        <mxCell id="tgQ6IL0ho2XKHn_8PLRf-6" value="&lt;p style=&quot;margin:0px;margin-top:4px;text-align:center;&quot;&gt;&lt;b&gt;UserGetDTO&lt;/b&gt;&lt;/p&gt;&lt;hr size=&quot;1&quot;/&gt;&lt;p style=&quot;margin:0 0 0 4px;line-height:1.6;&quot;&gt;+ UserGetDTO(): &lt;/p&gt;&lt;hr size=&quot;1&quot;/&gt;&lt;p style=&quot;margin:0 0 0 4px;line-height:1.6;&quot;&gt;- creationDate: Date&lt;br/&gt;- username: String&lt;br/&gt;- birthday: Date&lt;br/&gt;- token: String&lt;br/&gt;- status: UserStatus&lt;br/&gt;- id: Long&lt;br/&gt;- name: String&lt;/p&gt;&lt;hr size=&quot;1&quot;/&gt;&lt;p style=&quot;margin:0 0 0 4px;line-height:1.6;&quot;&gt;+ getName(): String&lt;br/&gt;+ setUsername(String): void&lt;br/&gt;+ setToken(String): void&lt;br/&gt;+ getId(): Long&lt;br/&gt;+ getToken(): String&lt;br/&gt;+ setStatus(UserStatus): void&lt;br/&gt;+ getBirthday(): Date&lt;br/&gt;+ setBirthday(Date): void&lt;br/&gt;+ setId(Long): void&lt;br/&gt;+ getUsername(): String&lt;br/&gt;+ setName(String): void&lt;br/&gt;+ getStatus(): UserStatus&lt;br/&gt;+ setCreationDate(Date): void&lt;br/&gt;+ getCreationDate(): Date&lt;/p&gt;" style="verticalAlign=top;align=left;overflow=fill;fontSize=14;fontFamily=Helvetica;html=1;rounded=0;shadow=0;comic=0;labelBackgroundColor=none;strokeWidth=1;" vertex="1" parent="WIyWlLk6GJQsqaUBKTNV-1">
          <mxGeometry x="151" y="-14" width="216" height="519" as="geometry" />
        </mxCell>
        <mxCell id="tgQ6IL0ho2XKHn_8PLRf-7" value="&lt;p style=&quot;margin:0px;margin-top:4px;text-align:center;&quot;&gt;&lt;b&gt;UserPostDTO&lt;/b&gt;&lt;/p&gt;&lt;hr size=&quot;1&quot;/&gt;&lt;p style=&quot;margin:0 0 0 4px;line-height:1.6;&quot;&gt;+ UserPostDTO(): &lt;/p&gt;&lt;hr size=&quot;1&quot;/&gt;&lt;p style=&quot;margin:0 0 0 4px;line-height:1.6;&quot;&gt;- username: String&lt;br/&gt;- birthday: Date&lt;br/&gt;- name: String&lt;br/&gt;- id: Long&lt;br/&gt;- password: String&lt;/p&gt;&lt;hr size=&quot;1&quot;/&gt;&lt;p style=&quot;margin:0 0 0 4px;line-height:1.6;&quot;&gt;+ setPassword(String): void&lt;br/&gt;+ getBirthday(): Date&lt;br/&gt;+ setName(String): void&lt;br/&gt;+ getName(): String&lt;br/&gt;+ getUsername(): String&lt;br/&gt;+ getPassword(): String&lt;br/&gt;+ setBirthday(Date): void&lt;br/&gt;+ setId(Long): void&lt;br/&gt;+ setUsername(String): void&lt;br/&gt;+ getId(): Long&lt;/p&gt;" style="verticalAlign=top;align=left;overflow=fill;fontSize=14;fontFamily=Helvetica;html=1;rounded=0;shadow=0;comic=0;labelBackgroundColor=none;strokeWidth=1;" vertex="1" parent="WIyWlLk6GJQsqaUBKTNV-1">
          <mxGeometry x="412" y="-14" width="206" height="434" as="geometry" />
        </mxCell>
        <mxCell id="tgQ6IL0ho2XKHn_8PLRf-8" value="&lt;p style=&quot;margin:0px;margin-top:4px;text-align:center;&quot;&gt;&lt;b&gt;UserPutDTO&lt;/b&gt;&lt;/p&gt;&lt;hr size=&quot;1&quot;/&gt;&lt;p style=&quot;margin:0 0 0 4px;line-height:1.6;&quot;&gt;+ UserPutDTO(): &lt;/p&gt;&lt;hr size=&quot;1&quot;/&gt;&lt;p style=&quot;margin:0 0 0 4px;line-height:1.6;&quot;&gt;- id: Long&lt;br/&gt;- username: String&lt;br/&gt;- password: String&lt;br/&gt;- birthday: Date&lt;br/&gt;- name: String&lt;/p&gt;&lt;hr size=&quot;1&quot;/&gt;&lt;p style=&quot;margin:0 0 0 4px;line-height:1.6;&quot;&gt;+ getName(): String&lt;br/&gt;+ setName(String): void&lt;br/&gt;+ getId(): Long&lt;br/&gt;+ getUsername(): String&lt;br/&gt;+ setUsername(String): void&lt;br/&gt;+ setBirthday(Date): void&lt;br/&gt;+ setPassword(String): void&lt;br/&gt;+ getBirthday(): Date&lt;br/&gt;+ getPassword(): String&lt;br/&gt;+ setId(Long): void&lt;/p&gt;" style="verticalAlign=top;align=left;overflow=fill;fontSize=14;fontFamily=Helvetica;html=1;rounded=0;shadow=0;comic=0;labelBackgroundColor=none;strokeWidth=1;" vertex="1" parent="WIyWlLk6GJQsqaUBKTNV-1">
          <mxGeometry x="663" y="-14" width="206" height="434" as="geometry" />
        </mxCell>
        <mxCell id="tgQ6IL0ho2XKHn_8PLRf-9" value="&lt;p style=&quot;margin:0px;margin-top:4px;text-align:center;&quot;&gt;&lt;i&gt;&amp;lt;&amp;lt;interface&amp;gt;&amp;gt;&lt;/i&gt;&lt;br/&gt;&lt;b&gt;UserRepository&lt;/b&gt;&lt;/p&gt;&lt;hr size=&quot;1&quot;/&gt;&lt;p style=&quot;margin:0 0 0 4px;line-height:1.6;&quot;&gt;+ findByUsername(String): User&lt;br/&gt;+ findByName(String): User&lt;/p&gt;" style="verticalAlign=top;align=left;overflow=fill;fontSize=14;fontFamily=Helvetica;html=1;rounded=0;shadow=0;comic=0;labelBackgroundColor=none;strokeWidth=1;" vertex="1" parent="WIyWlLk6GJQsqaUBKTNV-1">
          <mxGeometry x="206" y="1240" width="229" height="94" as="geometry" />
        </mxCell>
        <mxCell id="tgQ6IL0ho2XKHn_8PLRf-10" value="&lt;p style=&quot;margin:0px;margin-top:4px;text-align:center;&quot;&gt;&lt;b&gt;UserService&lt;/b&gt;&lt;/p&gt;&lt;hr size=&quot;1&quot;/&gt;&lt;p style=&quot;margin:0 0 0 4px;line-height:1.6;&quot;&gt;+ UserService(UserRepository): &lt;/p&gt;&lt;hr size=&quot;1&quot;/&gt;&lt;p style=&quot;margin:0 0 0 4px;line-height:1.6;&quot;&gt;- log: Logger&lt;br/&gt;- userRepository: UserRepository&lt;/p&gt;&lt;hr size=&quot;1&quot;/&gt;&lt;p style=&quot;margin:0 0 0 4px;line-height:1.6;&quot;&gt;+ checkUser(User): User&lt;br/&gt;+ checkUsername(User): void&lt;br/&gt;+ compareUserByToken(String, String): void&lt;br/&gt;+ createUser(User): User&lt;br/&gt;- updateRepository(User): void&lt;br/&gt;+ getUsers(): List&amp;lt;User&amp;gt;&lt;br/&gt;- checkIfUserExists(User): void&lt;br/&gt;+ checkTokenExists(String): void&lt;br/&gt;+ updateUsernameAndBirthday(User, User): void&lt;br/&gt;+ getUserByIDNum(Long): User&lt;br/&gt;+ logout(User): void&lt;/p&gt;" style="verticalAlign=top;align=left;overflow=fill;fontSize=14;fontFamily=Helvetica;html=1;rounded=0;shadow=0;comic=0;labelBackgroundColor=none;strokeWidth=1;" vertex="1" parent="WIyWlLk6GJQsqaUBKTNV-1">
          <mxGeometry x="-110" y="638" width="332" height="382" as="geometry" />
        </mxCell>
        <mxCell id="tgQ6IL0ho2XKHn_8PLRf-11" value="&lt;p style=&quot;margin:0px;margin-top:4px;text-align:center;&quot;&gt;&lt;i&gt;&amp;lt;&amp;lt;enumeration&amp;gt;&amp;gt;&lt;/i&gt;&lt;br/&gt;&lt;b&gt;UserStatus&lt;/b&gt;&lt;/p&gt;&lt;hr size=&quot;1&quot;/&gt;&lt;p style=&quot;margin:0 0 0 4px;line-height:1.6;&quot;&gt;+ UserStatus(): &lt;/p&gt;&lt;hr size=&quot;1&quot;/&gt;&lt;p style=&quot;margin:0 0 0 4px;line-height:1.6;&quot;&gt;+ ONLINE: &lt;br/&gt;+ OFFLINE: &lt;/p&gt;&lt;hr size=&quot;1&quot;/&gt;&lt;p style=&quot;margin:0 0 0 4px;line-height:1.6;&quot;&gt;+ values(): UserStatus[]&lt;br/&gt;+ valueOf(String): UserStatus&lt;/p&gt;" style="verticalAlign=top;align=left;overflow=fill;fontSize=14;fontFamily=Helvetica;html=1;rounded=0;shadow=0;comic=0;labelBackgroundColor=none;strokeWidth=1;" vertex="1" parent="WIyWlLk6GJQsqaUBKTNV-1">
          <mxGeometry x="527" y="1026" width="224" height="145" as="geometry" />
        </mxCell>
        <mxCell id="tgQ6IL0ho2XKHn_8PLRf-12" value="&lt;p style=&quot;margin:0px;margin-top:4px;text-align:center;&quot;&gt;&lt;i&gt;&amp;lt;&amp;lt;enumeration&amp;gt;&amp;gt;&lt;/i&gt;&lt;br&gt;&lt;b&gt;identity&lt;/b&gt;&lt;/p&gt;&lt;hr size=&quot;1&quot;&gt;&lt;p style=&quot;margin:0 0 0 4px;line-height:1.6;&quot;&gt;+ UserStatus(): &lt;/p&gt;&lt;hr size=&quot;1&quot;&gt;&lt;p style=&quot;margin:0 0 0 4px;line-height:1.6;&quot;&gt;+ Detective: &lt;br&gt;+ Undercover: &lt;/p&gt;&lt;hr size=&quot;1&quot;&gt;&lt;p style=&quot;margin:0 0 0 4px;line-height:1.6;&quot;&gt;+ values(): UserStatus[]&lt;br&gt;+ valueOf(String): UserStatus&lt;/p&gt;" style="verticalAlign=top;align=left;overflow=fill;fontSize=14;fontFamily=Helvetica;html=1;rounded=0;shadow=0;comic=0;labelBackgroundColor=none;strokeWidth=1;" vertex="1" parent="WIyWlLk6GJQsqaUBKTNV-1">
          <mxGeometry x="527" y="1200" width="224" height="145" as="geometry" />
        </mxCell>
        <mxCell id="tgQ6IL0ho2XKHn_8PLRf-13" value="" style="edgeStyle=orthogonalEdgeStyle;rounded=0;orthogonalLoop=1;jettySize=auto;html=1;" edge="1" parent="WIyWlLk6GJQsqaUBKTNV-1" source="tgQ6IL0ho2XKHn_8PLRf-14" target="tgQ6IL0ho2XKHn_8PLRf-4">
          <mxGeometry relative="1" as="geometry" />
        </mxCell>
        <mxCell id="tgQ6IL0ho2XKHn_8PLRf-14" value="&lt;p style=&quot;margin:0px;margin-top:4px;text-align:center;&quot;&gt;&lt;b&gt;Player&lt;/b&gt;&lt;/p&gt;&lt;hr size=&quot;1&quot;&gt;&lt;p style=&quot;margin:0 0 0 4px;line-height:1.6;&quot;&gt;+ User(): &lt;/p&gt;&lt;hr size=&quot;1&quot;&gt;&lt;p style=&quot;margin:0 0 0 4px;line-height:1.6;&quot;&gt;- id: Long&lt;br&gt;- username: String&lt;br&gt;- status: UserStatus&lt;br&gt;- birthday: Date&lt;br&gt;- name: String&lt;br&gt;- password: String&lt;br&gt;- creationDate: Date&lt;br&gt;- token: String&lt;br&gt;- serialVersionUID: long&lt;/p&gt;&lt;hr size=&quot;1&quot;&gt;&lt;p style=&quot;margin:0 0 0 4px;line-height:1.6;&quot;&gt;+ setId(Long): void&lt;br&gt;+ getPassword(): String&lt;br&gt;+ setPassword(String): void&lt;br&gt;+ setCreationDate(Date): void&lt;br&gt;+ getId(): Long&lt;br&gt;+ setBirthday(Date): void&lt;br&gt;+ setStatus(UserStatus): void&lt;br&gt;+ getBirthday(): Date&lt;br&gt;+ setUsername(String): void&lt;br&gt;+ setToken(String): void&lt;br&gt;+ getToken(): String&lt;br&gt;+ getUsername(): String&lt;br&gt;+ getCreationDate(): Date&lt;br&gt;+ getStatus(): UserStatus&lt;br&gt;+ setName(String): void&lt;br&gt;+ getName(): String&lt;/p&gt;" style="verticalAlign=top;align=left;overflow=fill;fontSize=14;fontFamily=Helvetica;html=1;rounded=0;shadow=0;comic=0;labelBackgroundColor=none;strokeWidth=1;" vertex="1" parent="WIyWlLk6GJQsqaUBKTNV-1">
          <mxGeometry x="-380" y="-14" width="210" height="607" as="geometry" />
        </mxCell>
      </root>
    </mxGraphModel>
  </diagram>
</mxfile>
